@startuml

    node "Web Application" as WebApp
    node "Back-End" as BackEnd
    node "Authentication System" as AuthSystem
    node "Database" as Database

    interface "AMAP API" as I_AMAP_API
    interface "AuthN API" as I_AuthN_API
    interface "DB API" as I_DB_API

    WebApp --> I_AMAP_API
    I_AMAP_API --> BackEnd
    BackEnd --> I_AuthN_API
    I_AuthN_API --> AuthSystem
    BackEnd --> I_DB_API
    I_DB_API --> Database

@enduml